<svg xmlns="http://www.w3.org/2000/svg" xmlns:xlink="http://www.w3.org/1999/xlink" id="v" width="351.36" height="135.04" version="1.1" viewBox="0 0 263.52 101.28"><metadata id="w"/><defs id="x"><g id="y"><symbol id="i" overflow="visible"><path id="z" d="m1.1094-1.8594h1.375c0.32812 0 0.60938-0.09375 0.84375-0.3125 0.26562-0.23438 0.375-0.51562 0.375-0.92188 0-0.8125-0.48438-1.2812-1.3438-1.2812h-1.8125v4.375h0.5625zm0-0.48438v-1.5312h1.1562c0.53125 0 0.85938 0.28125 0.85938 0.76562 0 0.46875-0.32812 0.76562-0.85938 0.76562z"/></symbol><symbol id="a" overflow="visible"><path id="aa" d="m4.4688 0 1.1094-4.375h-0.625l-0.8125 3.5469-0.98438-3.5469h-0.60938l-0.96875 3.5469-0.82812-3.5469h-0.625l1.125 4.375h0.60938l0.98438-3.5938 1.0156 3.5938z"/></symbol><symbol id="k" overflow="visible"><path id="ab" d="m0.46875 0h1.9844c0.40625 0 0.71875-0.10938 0.95312-0.35938 0.21875-0.23438 0.32812-0.54688 0.32812-0.89062 0-0.53125-0.23438-0.84375-0.79688-1.0625 0.40625-0.1875 0.60938-0.5 0.60938-0.95312 0-0.3125-0.125-0.59375-0.34375-0.79688-0.23438-0.21875-0.53125-0.3125-0.95312-0.3125h-1.7812zm0.5625-2.4844v-1.3906h1.0781c0.3125 0 0.48438 0.03125 0.64062 0.15625 0.15625 0.10938 0.23438 0.29688 0.23438 0.53125s-0.078125 0.42188-0.23438 0.54688c-0.15625 0.10938-0.32812 0.15625-0.64062 0.15625zm0 2v-1.5156h1.3594c0.26562 0 0.45312 0.0625 0.57812 0.21875 0.14062 0.125 0.21875 0.32812 0.21875 0.54688 0 0.20312-0.078125 0.39062-0.21875 0.53125-0.125 0.14062-0.3125 0.21875-0.57812 0.21875z"/></symbol><symbol id="f" overflow="visible"><path id="ac" d="m2.8125 0 1.2188-3.6719v3.6719h0.53125v-4.375h-0.76562l-1.2812 3.8125-1.2969-3.8125h-0.76562v4.375h0.53125v-3.6719l1.2344 3.6719z"/></symbol><symbol id="e" overflow="visible"><path id="ad" d="m0.32812 1.3125h0.5v-1.6406c0.26562 0.32812 0.5625 0.46875 0.96875 0.46875 0.8125 0 1.3438-0.65625 1.3438-1.6562 0-1.0625-0.51562-1.7188-1.3594-1.7188-0.42188 0-0.76562 0.1875-1 0.5625v-0.46875h-0.45312zm1.375-4.0781c0.54688 0 0.90625 0.48438 0.90625 1.2344 0 0.71875-0.35938 1.2031-0.90625 1.2031-0.53125 0-0.875-0.48438-0.875-1.2188s0.34375-1.2188 0.875-1.2188z"/></symbol><symbol id="d" overflow="visible"><path id="ae" d="m3.3281 0 0.92188-3.1406h-0.5625l-0.625 2.4375-0.625-2.4375h-0.60938l-0.59375 2.4375-0.64062-2.4375h-0.5625l0.92188 3.1406h0.5625l0.60938-2.4688 0.625 2.4688z"/></symbol><symbol id="c" overflow="visible"><path id="af" d="m0.42188-3.1406v3.1406h0.5v-1.9688c0-0.46875 0.32812-0.82812 0.73438-0.82812 0.375 0 0.59375 0.23438 0.59375 0.625v2.1719h0.5v-1.9688c0-0.46875 0.32812-0.82812 0.73438-0.82812 0.375 0 0.57812 0.23438 0.57812 0.625v2.1719h0.51562v-2.3594c0-0.5625-0.32812-0.875-0.92188-0.875-0.42188 0-0.67188 0.125-0.96875 0.48438-0.17188-0.34375-0.4375-0.48438-0.84375-0.48438-0.42188 0-0.6875 0.15625-0.96875 0.53125v-0.4375z"/></symbol><symbol id="b" overflow="visible"><path id="ag" d="m1.1406-0.625h-0.625v0.625h0.625z"/></symbol><symbol id="u" overflow="visible"><path id="ah" d="m1.5469-3.0312v3.0312h0.53125v-4.25h-0.34375c-0.1875 0.65625-0.3125 0.73438-1.125 0.84375v0.375z"/></symbol><symbol id="t" overflow="visible"><path id="ai" d="m3.0312-0.51562h-2.2344c0.0625-0.35938 0.25-0.57812 0.76562-0.875l0.60938-0.32812c0.59375-0.32812 0.89062-0.76562 0.89062-1.2812 0-0.35938-0.14062-0.6875-0.39062-0.92188-0.25-0.21875-0.5625-0.32812-0.96875-0.32812-0.54688 0-0.9375 0.1875-1.1719 0.54688-0.15625 0.23438-0.21875 0.5-0.23438 0.92188h0.53125c0.015625-0.28125 0.046875-0.45312 0.125-0.59375 0.14062-0.26562 0.42188-0.42188 0.73438-0.42188 0.48438 0 0.84375 0.34375 0.84375 0.79688 0 0.34375-0.20312 0.625-0.57812 0.84375l-0.5625 0.3125c-0.875 0.5-1.1406 0.90625-1.1875 1.8438h2.8281z"/></symbol><symbol id="j" overflow="visible"><path id="aj" d="m0.53125 0h1.6875c1.1094 0 1.7812-0.82812 1.7812-2.1875s-0.67188-2.1875-1.7812-2.1875h-1.6875zm0.5625-0.48438v-3.3906h1.0312c0.85938 0 1.3125 0.57812 1.3125 1.6875s-0.45312 1.7031-1.3125 1.7031z"/></symbol><symbol id="s" overflow="visible"><path id="ak" d="m3.875-4.375h-0.53125v3.5781l-2.2812-3.5781h-0.60938v4.375h0.53125v-3.5469l2.2656 3.5469h0.625z"/></symbol><symbol id="r" overflow="visible"><path id="al" d="m1.3281-1.9531h0.28125c0.59375 0 0.89062 0.26562 0.89062 0.76562 0 0.54688-0.32812 0.85938-0.89062 0.85938-0.57812 0-0.85938-0.29688-0.89062-0.90625h-0.53125c0.03125 0.34375 0.09375 0.5625 0.1875 0.75 0.21875 0.40625 0.64062 0.625 1.2188 0.625 0.875 0 1.4375-0.53125 1.4375-1.3281 0-0.54688-0.20312-0.84375-0.71875-1.0156 0.40625-0.15625 0.59375-0.45312 0.59375-0.875 0-0.73438-0.48438-1.1719-1.2969-1.1719-0.85938 0-1.3125 0.46875-1.3281 1.375h0.53125c0-0.26562 0.03125-0.40625 0.09375-0.53125 0.125-0.23438 0.39062-0.39062 0.71875-0.39062 0.46875 0 0.75 0.28125 0.75 0.73438 0 0.29688-0.10938 0.46875-0.34375 0.57812-0.14062 0.046875-0.32812 0.078125-0.70312 0.078125z"/></symbol><symbol id="h" overflow="visible"><path id="am" d="m3.0781-1.4062c0-0.48438-0.03125-0.76562-0.125-1-0.20312-0.51562-0.6875-0.82812-1.2656-0.82812-0.89062 0-1.4531 0.67188-1.4531 1.7031s0.54688 1.6719 1.4375 1.6719c0.71875 0 1.2188-0.40625 1.3438-1.0938h-0.5c-0.14062 0.40625-0.42188 0.625-0.82812 0.625-0.3125 0-0.59375-0.14062-0.75-0.40625-0.125-0.17188-0.17188-0.35938-0.17188-0.67188zm-2.2969-0.40625c0.03125-0.57812 0.39062-0.95312 0.89062-0.95312s0.875 0.40625 0.875 0.92188c0 0 0 0.015625-0.015625 0.03125z"/></symbol><symbol id="g" overflow="visible"><path id="an" d="m2.9688-4.375h-0.5v1.625c-0.20312-0.3125-0.54688-0.48438-0.96875-0.48438-0.8125 0-1.3438 0.65625-1.3438 1.6562 0 1.0625 0.51562 1.7188 1.375 1.7188 0.42188 0 0.71875-0.17188 1-0.54688v0.40625h0.4375zm-1.375 1.6094c0.53125 0 0.875 0.48438 0.875 1.2344 0 0.71875-0.34375 1.2031-0.875 1.2031-0.54688 0-0.92188-0.48438-0.92188-1.2188s0.375-1.2188 0.92188-1.2188z"/></symbol><symbol id="l" overflow="visible"><path id="ao" d="m1.0938-1.9844h2.3906v-0.5h-2.3906v-1.3906h2.4688v-0.5h-3.0156v4.375h3.125v-0.48438h-2.5781z"/></symbol><symbol id="q" overflow="visible"><path id="ap" d="m2.9844-3.1406c-0.09375-0.70312-0.54688-1.1094-1.2031-1.1094-0.46875 0-0.89062 0.21875-1.1406 0.60938-0.26562 0.40625-0.375 0.92188-0.375 1.7031 0 0.71875 0.09375 1.1719 0.35938 1.5469 0.21875 0.34375 0.59375 0.53125 1.0625 0.53125 0.8125 0 1.3906-0.60938 1.3906-1.4375 0-0.79688-0.54688-1.3438-1.2969-1.3438-0.42188 0-0.75 0.15625-0.98438 0.46875 0-1.0312 0.34375-1.6094 0.95312-1.6094 0.375 0 0.625 0.23438 0.70312 0.64062zm-1.2812 0.96875c0.51562 0 0.82812 0.34375 0.82812 0.92188 0 0.53125-0.35938 0.92188-0.84375 0.92188s-0.85938-0.40625-0.85938-0.95312c0-0.53125 0.35938-0.89062 0.875-0.89062z"/></symbol><symbol id="p" overflow="visible"><path id="aq" d="m3.9688-5.25v3.6875c0 0.70312-0.5 1.1406-1.3438 1.1406-0.39062 0-0.70312-0.09375-0.96875-0.28125-0.25-0.20312-0.375-0.46875-0.375-0.85938v-3.6875h-0.67188v3.6875c0 1.0625 0.76562 1.7344 2.0156 1.7344 1.2344 0 2.0156-0.6875 2.0156-1.7344v-3.6875z"/></symbol><symbol id="o" overflow="visible"><path id="ar" d="m3.9688-2.3906v2.3906h0.67188v-5.25h-0.67188v2.2656h-2.7031v-2.2656h-0.67188v5.25h0.6875v-2.3906z"/></symbol><symbol id="n" overflow="visible"><path id="as" d="m2.8281 0 1.8125-5.25h-0.70312l-1.4531 4.4375-1.5469-4.4375h-0.71875l1.8906 5.25z"/></symbol><symbol id="m" overflow="visible"><path id="at" d="m1.3906-5.25h-0.67188v5.25h0.67188z"/></symbol></g></defs><path id="au" fill="#fff" fill-rule="evenodd" d="m0.23828 0.24218v100.8h263.04v-100.8z"/><path id="av" fill="#f0f" d="m0 0h263.52v101.28h-263.52zm0.48046 101.04-0.24218-0.24219h263.04l-0.23827 0.24219v-100.8l0.23827 0.23829h-263.04l0.24218-0.23829"/><path id="aw" fill="#cfc" fill-rule="evenodd" d="m20.277 18.121v71.402h204.6v-71.402z"/><path id="ax" d="m20.039 17.883h205.08v71.879h-205.08zm0.48047 71.641-0.24219-0.24218h204.6l-0.24219 0.24218v-71.402l0.24219 0.24219h-204.6l0.24219-0.24219"/><path id="ay" fill="#fabf8f" fill-rule="evenodd" d="m132.6 28.562v47.758h68.281v-47.758z"/><path id="az" d="m132.48 28.441h68.637v48h-68.637zm0.35938 47.879-0.2422-0.23828h68.281l-0.24219 0.23828v-47.758l0.24219 0.23828h-68.281l0.24219-0.23828"/><g id="ba" transform="translate(-232.44 -329.4)"><use id="bb" width="100%" height="100%" x="366.48" y="364.8" xlink:href="#i"/></g><g id="bc" transform="translate(-232.44 -329.4)"><use id="bd" width="100%" height="100%" x="370.44" y="364.8" xlink:href="#a"/></g><g id="be" transform="translate(-232.44 -329.4)"><use id="bf" width="100%" height="100%" x="376.44" y="364.8" xlink:href="#k"/></g><g id="bg" transform="translate(-232.44 -329.4)"><use id="bh" width="100%" height="100%" x="380.4" y="364.8" xlink:href="#f"/></g><path id="bi" fill="#fabf8f" fill-rule="evenodd" d="m29.52 25.922v51.238h70.438v-51.238z"/><path id="bj" d="m29.277 25.68h70.922v51.723h-70.922zm0.48047 51.48-0.23828-0.23828h70.438l-0.23828 0.23828v-51.238l0.23828 0.1211h-70.438l0.23828-0.1211"/><g id="bk" transform="translate(-232.44 -329.4)"><use id="bl" width="100%" height="100%" x="263.28" y="362.04" xlink:href="#i"/></g><g id="bm" transform="translate(-232.44 -329.4)"><use id="bn" width="100%" height="100%" x="267.24" y="362.04" xlink:href="#a"/></g><g id="bo" transform="translate(-232.44 -329.4)"><use id="bp" width="100%" height="100%" x="273.24" y="362.04" xlink:href="#k"/></g><g id="bq" transform="translate(-232.44 -329.4)"><use id="br" width="100%" height="100%" x="277.2" y="362.04" xlink:href="#f"/></g><path id="bs" d="m95.16 52.082h43.437v0.59765h-43.437zm0.59766 2.1602-3.5977-1.8008 3.5977-1.8008zm42.242-3.6016 3.5976 1.8008-3.5976 1.8008"/><g id="bt" transform="translate(-232.44 -329.4)"><use id="bu" width="100%" height="100%" x="332.76" y="393.72" xlink:href="#e"/></g><g id="bv" transform="translate(-232.44 -329.4)"><use id="bw" width="100%" height="100%" x="336.12" y="393.72" xlink:href="#d"/></g><g id="bx" transform="translate(-232.44 -329.4)"><use id="by" width="100%" height="100%" x="340.32" y="393.72" xlink:href="#g"/></g><g id="bz" transform="translate(-232.44 -329.4)"><use id="ca" width="100%" height="100%" x="343.68" y="393.72" xlink:href="#h"/></g><g id="cb" transform="translate(-232.44 -329.4)"><use id="cc" width="100%" height="100%" x="347.04" y="393.72" xlink:href="#c"/></g><g id="cd" transform="translate(-232.44 -329.4)"><use id="ce" width="100%" height="100%" x="351.84" y="393.72" xlink:href="#b"/></g><g id="cf" transform="translate(-232.44 -329.4)"><use id="cg" width="100%" height="100%" x="353.52" y="393.72" xlink:href="#t"/></g><g id="ch" transform="translate(-232.44 -329.4)"><use id="ci" width="100%" height="100%" x="434.76" y="415.68" xlink:href="#j"/></g><g id="cj" transform="translate(-232.44 -329.4)"><use id="ck" width="100%" height="100%" x="439.08" y="415.68" xlink:href="#s"/></g><g id="cl" transform="translate(-232.44 -329.4)"><use id="cm" width="100%" height="100%" x="443.4" y="415.68" xlink:href="#a"/></g><path id="cn" fill="#f0dcd9" fill-rule="evenodd" d="m141.24 37.801v30.242h44.762v-30.242z"/><path id="co" d="m141 37.562h45.117v30.719h-45.117zm0.48046 30.48-0.24219-0.24219h44.762l-0.24219 0.24219v-30.242l0.24219 0.24219h-44.762l0.24219-0.24219"/><g id="cp" transform="translate(-232.44 -329.4)"><use id="cq" width="100%" height="100%" x="375" y="373.92" xlink:href="#i"/></g><g id="cr" transform="translate(-232.44 -329.4)"><use id="cs" width="100%" height="100%" x="378.96" y="373.92" xlink:href="#a"/></g><g id="ct" transform="translate(-232.44 -329.4)"><use id="cu" width="100%" height="100%" x="384.96" y="373.92" xlink:href="#j"/></g><g id="cv" transform="translate(-232.44 -329.4)"><use id="cw" width="100%" height="100%" x="389.28" y="373.92" xlink:href="#l"/></g><g id="cx" transform="translate(-232.44 -329.4)"><use id="cy" width="100%" height="100%" x="393.24" y="373.92" xlink:href="#f"/></g><path id="cz" fill="#f0dcd9" fill-rule="evenodd" d="m40.918 39.121v30.719h49.32v-30.719z"/><path id="da" d="m40.68 38.883h49.801v31.199h-49.801zm0.48047 30.957-0.24219-0.23828h49.32l-0.23828 0.23828v-30.719l0.23828 0.24219h-49.32l0.24219-0.24219"/><g id="db" transform="translate(-232.44 -329.4)"><use id="dc" width="100%" height="100%" x="274.8" y="375.36" xlink:href="#i"/></g><g id="dd" transform="translate(-232.44 -329.4)"><use id="de" width="100%" height="100%" x="278.76" y="375.36" xlink:href="#a"/></g><g id="df" transform="translate(-232.44 -329.4)"><use id="dg" width="100%" height="100%" x="284.76" y="375.36" xlink:href="#j"/></g><g id="dh" transform="translate(-232.44 -329.4)"><use id="di" width="100%" height="100%" x="289.08" y="375.36" xlink:href="#l"/></g><g id="dj" transform="translate(-232.44 -329.4)"><use id="dk" width="100%" height="100%" x="293.04" y="375.36" xlink:href="#f"/></g><path id="dl" d="m46.918 51.242h38.879v0.59766h-38.879zm0.60157 2.0391-3.6016-1.8008 3.6016-1.8008zm37.68-3.6016 3.5977 1.8008-3.5977 1.8008"/><g id="dm" transform="translate(-232.44 -329.4)"><use id="dn" width="100%" height="100%" x="274.92" y="395.52" xlink:href="#e"/></g><g id="do" transform="translate(-232.44 -329.4)"><use id="dp" width="100%" height="100%" x="278.28" y="395.52" xlink:href="#d"/></g><g id="dq" transform="translate(-232.44 -329.4)"><use id="dr" width="100%" height="100%" x="282.48" y="395.52" xlink:href="#g"/></g><g id="ds" transform="translate(-232.44 -329.4)"><use id="dt" width="100%" height="100%" x="285.84" y="395.52" xlink:href="#h"/></g><g id="du" transform="translate(-232.44 -329.4)"><use id="dv" width="100%" height="100%" x="289.2" y="395.52" xlink:href="#c"/></g><g id="dw" transform="translate(-232.44 -329.4)"><use id="dx" width="100%" height="100%" x="294" y="395.52" xlink:href="#b"/></g><g id="dy" transform="translate(-232.44 -329.4)"><use id="dz" width="100%" height="100%" x="295.68" y="395.52" xlink:href="#u"/></g><g id="ea" fill="#ff30cc" transform="translate(-232.44 -329.4)"><use id="eb" width="100%" height="100%" x="466.92" y="425.4" xlink:href="#p"/></g><g id="ec" fill="#ff30cc" transform="translate(-232.44 -329.4)"><use id="ed" width="100%" height="100%" x="472.08" y="425.4" xlink:href="#o"/></g><g id="ee" fill="#ff30cc" transform="translate(-232.44 -329.4)"><use id="ef" width="100%" height="100%" x="477.24" y="425.4" xlink:href="#n"/></g><g id="eg" fill="#ff30cc" transform="translate(-232.44 -329.4)"><use id="eh" width="100%" height="100%" x="482.04" y="425.4" xlink:href="#m"/></g><path id="ei" d="m165.36 48.48h18.961v0.60156h-18.961zm18.359-1.5586 3.6016 1.8008-3.6016 1.8008"/><path id="ej" d="m230.16 62.641h19.078v0.60156h-19.078zm0.59766 2.1602-3.5977-1.8008 3.5977-1.7969"/><path id="ek" d="m203.28 48.48h18.961v0.60156h-18.961zm0.60156 2.043-3.6016-1.8008 3.6016-1.8008"/><path id="el" d="m163.56 61.801h19.078v0.60156h-19.078zm18.48-1.5586 3.5976 1.8008-3.5976 1.7969"/><g id="em" transform="translate(-232.44 -329.4)"><use id="en" width="100%" height="100%" x="435.36" y="371.64" xlink:href="#e"/></g><g id="eo" transform="translate(-232.44 -329.4)"><use id="ep" width="100%" height="100%" x="438.72" y="371.64" xlink:href="#d"/></g><g id="eq" transform="translate(-232.44 -329.4)"><use id="er" width="100%" height="100%" x="442.92" y="371.64" xlink:href="#g"/></g><g id="es" transform="translate(-232.44 -329.4)"><use id="et" width="100%" height="100%" x="446.28" y="371.64" xlink:href="#h"/></g><g id="eu" transform="translate(-232.44 -329.4)"><use id="ev" width="100%" height="100%" x="449.64" y="371.64" xlink:href="#c"/></g><g id="ew" transform="translate(-232.44 -329.4)"><use id="ex" width="100%" height="100%" x="454.44" y="371.64" xlink:href="#b"/></g><g id="ey" transform="translate(-232.44 -329.4)"><use id="ez" width="100%" height="100%" x="456.12" y="371.64" xlink:href="#r"/></g><g id="fa" transform="translate(-232.44 -329.4)"><use id="fb" width="100%" height="100%" x="459.48" y="403.8" xlink:href="#e"/></g><g id="fc" transform="translate(-232.44 -329.4)"><use id="fd" width="100%" height="100%" x="462.84" y="403.8" xlink:href="#d"/></g><g id="fe" transform="translate(-232.44 -329.4)"><use id="ff" width="100%" height="100%" x="467.04" y="403.8" xlink:href="#g"/></g><g id="fg" transform="translate(-232.44 -329.4)"><use id="fh" width="100%" height="100%" x="470.4" y="403.8" xlink:href="#h"/></g><g id="fi" transform="translate(-232.44 -329.4)"><use id="fj" width="100%" height="100%" x="473.76" y="403.8" xlink:href="#c"/></g><g id="fk" transform="translate(-232.44 -329.4)"><use id="fl" width="100%" height="100%" x="478.56" y="403.8" xlink:href="#b"/></g><g id="fm" transform="translate(-232.44 -329.4)"><use id="fn" width="100%" height="100%" x="480.24" y="403.8" xlink:href="#q"/></g></svg>